<svg width="410" height="410" viewBox="0 0 410 410" fill="none" xmlns="http://www.w3.org/2000/svg">
<path d="M269.919 173.9C271.912 167.854 268.334 160.992 261.835 158.396C258.348 157.004 257.239 157.045 253.248 158.716C249.24 160.392 245.698 165.56 245.694 169.739C245.675 184.028 265.461 187.427 269.919 173.9Z" fill="#F4F4F4"/>
<path fill-rule="evenodd" clip-rule="evenodd" d="M0 204.956C0 318.151 91.6374 409.913 204.677 409.913C317.718 409.913 409.355 318.151 409.355 204.956C409.355 91.7623 317.718 0 204.677 0C91.6374 0 0 91.7623 0 204.956ZM326.418 350.419C314.97 358.312 300.905 365.292 298.977 355.966C296.329 343.169 291.364 317.06 295.005 297.686C298.909 284.594 304.746 270.86 311.061 260.932C320.85 245.548 336.618 229.632 353.639 217.959C368.467 207.79 372.771 201.927 372.813 191.837C372.857 181.125 369.388 176.712 351.339 164.521C318.056 142.036 270.52 117.514 241.512 107.866L237.151 106.415H236.953C236.25 101.324 233.05 95.1545 229.485 89.2301C220.072 73.5935 211.194 61.535 197.946 64.8376C184.699 68.1403 182.946 82.278 181.509 101.19C181.307 103.86 181.239 106.018 181.31 107.79C177.577 109.497 173.889 111.513 170.297 113.729C167.509 109.773 164.229 105.95 160.422 102.191C152.522 94.3915 144.069 88.8925 136.868 86.8697C119.74 82.0557 108.816 93.5619 113.896 111.063C116.559 120.237 125.038 131.579 136.315 141.637C132.593 145.415 129.783 148.513 128.165 150.332L123.338 154.805C88.0598 187.501 56.1719 242.842 39.7646 298.553C24.0978 270.934 15.151 238.99 15.151 204.956C15.151 100.141 100.005 15.1718 204.677 15.1718C309.35 15.1718 394.205 100.141 394.205 204.956C394.205 263.361 367.858 315.605 326.418 350.419ZM301.694 154.185C267.33 135.308 236.605 122.094 213.078 115.859C212.245 115.656 211.379 115.433 210.476 115.19C208.63 114.732 206.832 114.318 205.083 113.951C196.87 112.537 192.64 114.286 189.349 116.067C185.297 118.39 180.994 121.387 176.639 124.75C179.349 130.704 181.156 137.042 182.159 143.951C183.371 152.291 183.118 165.936 181.711 168.218C180.774 169.734 161.882 160.171 149.691 152.008C148.97 151.526 148.255 151.036 147.546 150.538C146.706 151.341 145.888 152.125 145.096 152.885L145.09 152.89C141.05 156.764 137.666 160.008 135.283 162.077C133.473 163.993 131.239 166.321 128.83 168.795C122.83 174.956 115.049 183.628 111.535 188.07C84.2389 222.57 62.1433 267.696 49.8625 313.198C83.8016 326.613 141.606 332.501 194.042 289.969C195.127 289.088 196.197 288.222 197.254 287.363L197.433 287.217C236.044 255.89 256.557 239.245 291.293 223.269C293.276 222.304 295.299 221.359 297.37 220.424C303.633 217.599 309.778 215.09 317.86 212.101C320.131 211.261 322.463 210.42 324.862 209.574C328.237 208.331 331.469 207.379 335.114 206.093C335.347 206.078 335.844 205.758 336.063 205.75C336.544 205.59 337.029 205.43 337.516 205.269C347.229 202.065 356.197 198.512 357.446 197.375C360.361 194.717 360.361 190.527 357.446 187.908C353.866 184.695 320.552 164.544 301.694 154.185Z" fill="#F4F4F4"/>
</svg>
