<svg width="980" height="204" viewBox="0 0 980 204" fill="none" xmlns="http://www.w3.org/2000/svg">
<path d="M278.509 164.343C277.207 164.343 276.379 163.751 276.024 162.568L244.608 42.406L244.43 41.6961C244.43 40.6311 245.081 40.0986 246.383 40.0986H268.392C269.575 40.0986 270.344 40.6903 270.699 41.8735L287.561 114.113C287.679 114.586 287.857 114.823 288.093 114.823C288.33 114.823 288.508 114.586 288.626 114.113L304.955 42.051C305.31 40.7494 306.079 40.0986 307.262 40.0986H328.739C330.041 40.0986 330.869 40.6903 331.224 41.8735L348.973 114.113C349.091 114.468 349.269 114.704 349.506 114.823C349.742 114.823 349.92 114.586 350.038 114.113L366.367 42.051C366.722 40.7494 367.491 40.0986 368.675 40.0986H389.619C391.275 40.0986 391.926 40.8678 391.571 42.406L362.462 162.568C362.107 163.751 361.279 164.343 359.978 164.343H338.856C337.673 164.343 336.904 163.751 336.549 162.568L318.444 85.714C318.326 85.2407 318.149 85.004 317.912 85.004C317.675 85.004 317.498 85.2407 317.38 85.714L300.518 162.39C300.281 163.692 299.512 164.343 298.21 164.343H278.509ZM418.541 62.8176C414.518 62.8176 411.146 61.516 408.424 58.9127C405.821 56.1912 404.52 52.8189 404.52 48.7957C404.52 44.6542 405.821 41.2819 408.424 38.6787C411.028 36.0755 414.4 34.7739 418.541 34.7739C422.683 34.7739 426.055 36.0755 428.658 38.6787C431.262 41.2819 432.563 44.6542 432.563 48.7957C432.563 52.8189 431.202 56.1912 428.481 58.9127C425.878 61.516 422.565 62.8176 418.541 62.8176ZM407.892 164.343C407.3 164.343 406.768 164.165 406.295 163.81C405.94 163.337 405.762 162.805 405.762 162.213V75.0645C405.762 74.4728 405.94 73.9995 406.295 73.6445C406.768 73.1712 407.3 72.9346 407.892 72.9346H428.658C429.25 72.9346 429.723 73.1712 430.078 73.6445C430.552 73.9995 430.788 74.4728 430.788 75.0645V162.213C430.788 162.805 430.552 163.337 430.078 163.81C429.723 164.165 429.25 164.343 428.658 164.343H407.892ZM447.452 164.343C446.86 164.343 446.328 164.165 445.854 163.81C445.499 163.337 445.322 162.805 445.322 162.213V143.221C445.322 142.275 445.677 141.387 446.387 140.559L486.322 96.7185C486.914 96.0085 486.796 95.6535 485.967 95.6535H448.517C447.925 95.6535 447.393 95.476 446.919 95.121C446.564 94.6477 446.387 94.1153 446.387 93.5236V75.242C446.387 74.6503 446.564 74.177 446.919 73.822C447.393 73.3487 447.925 73.1121 448.517 73.1121H514.899C515.49 73.1121 515.964 73.3487 516.319 73.822C516.792 74.177 517.028 74.6503 517.028 75.242V94.0561C517.028 94.8844 516.673 95.7718 515.964 96.7185L474.785 140.559C474.312 141.269 474.43 141.624 475.14 141.624H515.786C516.378 141.624 516.851 141.861 517.206 142.334C517.679 142.689 517.916 143.162 517.916 143.754V162.213C517.916 162.805 517.679 163.337 517.206 163.81C516.851 164.165 516.378 164.343 515.786 164.343H447.452ZM612.69 109.32C613.399 113.817 613.636 118.846 613.399 124.407C613.281 125.827 612.512 126.537 611.092 126.537H556.247C555.537 126.537 555.301 126.833 555.537 127.425C555.892 129.791 556.543 132.158 557.49 134.524C560.566 141.151 566.838 144.464 576.304 144.464C583.877 144.345 589.852 141.269 594.23 135.234C594.704 134.524 595.236 134.169 595.828 134.169C596.183 134.169 596.597 134.406 597.07 134.879L609.85 147.481C610.441 148.073 610.737 148.605 610.737 149.078C610.737 149.315 610.5 149.788 610.027 150.498C606.122 155.35 601.093 159.136 594.94 161.858C588.787 164.461 582.043 165.763 574.706 165.763C564.53 165.763 555.892 163.455 548.793 158.841C541.811 154.226 536.782 147.777 533.706 139.494C531.221 133.578 529.978 125.827 529.978 116.243C529.978 109.735 530.866 103.996 532.641 99.0259C535.362 90.6246 540.095 83.9391 546.84 78.9693C553.703 73.9995 561.809 71.5147 571.156 71.5147C582.989 71.5147 592.455 74.9462 599.555 81.8092C606.773 88.6722 611.151 97.8426 612.69 109.32ZM571.334 93.1686C563.879 93.1686 558.969 96.6593 556.602 103.641C556.129 105.179 555.715 107.072 555.36 109.32C555.36 109.912 555.656 110.208 556.247 110.208H586.953C587.663 110.208 587.9 109.912 587.663 109.32C587.072 105.889 586.776 104.232 586.776 104.351C585.711 100.801 583.818 98.0792 581.096 96.186C578.493 94.1744 575.239 93.1686 571.334 93.1686ZM714.552 41.1636C715.143 40.4536 715.853 40.0986 716.682 40.0986H730.171C731.354 40.0986 731.946 40.6903 731.946 41.8735V162.568C731.946 163.751 731.354 164.343 730.171 164.343H716.682C715.498 164.343 714.907 163.751 714.907 162.568V71.6921C714.907 71.3372 714.788 71.1005 714.552 70.9822C714.315 70.8638 714.138 70.9822 714.019 71.3372L688.638 110.03C688.165 110.74 687.455 111.095 686.508 111.095H679.763C678.935 111.095 678.225 110.74 677.633 110.03L652.075 71.6921C651.956 71.3372 651.779 71.2188 651.542 71.3372C651.306 71.4555 651.187 71.6921 651.187 72.0471V162.568C651.187 163.751 650.596 164.343 649.412 164.343H635.923C634.74 164.343 634.148 163.751 634.148 162.568V41.8735C634.148 40.6903 634.74 40.0986 635.923 40.0986H649.412C650.359 40.0986 651.069 40.4536 651.542 41.1636L682.603 87.6664C682.722 87.7847 682.899 87.8439 683.136 87.8439C683.372 87.8439 683.55 87.7847 683.668 87.6664L714.552 41.1636ZM769.191 59.8002C765.878 59.8002 763.157 58.7352 761.027 56.6053C758.897 54.4755 757.832 51.7539 757.832 48.4407C757.832 45.1276 758.897 42.406 761.027 40.2761C763.157 38.1462 765.878 37.0813 769.191 37.0813C772.505 37.0813 775.226 38.1462 777.356 40.2761C779.486 42.406 780.551 45.1276 780.551 48.4407C780.551 51.7539 779.486 54.4755 777.356 56.6053C775.226 58.7352 772.505 59.8002 769.191 59.8002ZM762.092 164.165C760.908 164.165 760.317 163.574 760.317 162.39V75.7745C760.317 74.5912 760.908 73.9995 762.092 73.9995H775.581C776.764 73.9995 777.356 74.5912 777.356 75.7745V162.39C777.356 163.574 776.764 164.165 775.581 164.165H762.092ZM840.345 165.763C831.352 165.763 823.661 163.514 817.271 159.018C810.881 154.403 806.503 148.191 804.136 140.381C802.362 134.938 801.474 127.779 801.474 118.905C801.474 110.74 802.362 103.581 804.136 97.4284C806.503 89.8555 810.881 83.8207 817.271 79.3243C823.779 74.8278 831.47 72.5796 840.345 72.5796C849.219 72.5796 856.97 74.8278 863.596 79.3243C870.223 83.8207 874.541 89.5005 876.553 96.3635C877.263 98.2567 877.736 100.209 877.973 102.221C877.973 103.167 877.44 103.759 876.376 103.996L863.064 105.948H862.709C861.88 105.948 861.289 105.416 860.934 104.351L860.401 101.511C859.455 97.4876 857.147 94.1153 853.479 91.3937C849.811 88.6722 845.374 87.3114 840.167 87.3114C835.079 87.3114 830.76 88.6722 827.21 91.3937C823.661 94.1153 821.353 97.7242 820.288 102.221C819.223 106.481 818.691 112.101 818.691 119.082C818.691 125.945 819.223 131.507 820.288 135.767C821.471 140.5 823.779 144.227 827.21 146.949C830.76 149.67 835.079 151.031 840.167 151.031C845.374 151.031 849.811 149.67 853.479 146.949C857.266 144.227 859.632 140.677 860.579 136.299C860.697 136.181 860.697 136.062 860.579 135.944C860.579 135.707 860.638 135.53 860.756 135.412V134.702C861.111 133.755 861.762 133.4 862.709 133.637L876.021 135.767C876.967 136.003 877.44 136.477 877.44 137.187V137.897C877.44 138.961 877.145 140.263 876.553 141.801C874.541 149.019 870.223 154.817 863.596 159.196C856.97 163.574 849.219 165.763 840.345 165.763ZM969.995 107.9C970.469 112.752 970.646 118.195 970.528 124.23C970.528 125.413 969.936 126.005 968.753 126.005H912.133C911.66 126.005 911.423 126.241 911.423 126.715C911.423 130.738 911.778 133.814 912.488 135.944C913.79 140.677 916.393 144.405 920.298 147.126C924.321 149.729 929.35 151.031 935.385 151.031C944.141 151.031 950.885 147.422 955.619 140.204C956.21 139.021 956.979 138.843 957.926 139.671L968.043 146.416C968.871 147.126 969.049 147.895 968.575 148.724C965.262 154.048 960.529 158.249 954.376 161.325C948.341 164.402 941.478 165.94 933.787 165.94C925.149 165.94 917.872 164.047 911.956 160.26C906.039 156.474 901.602 151.09 898.644 144.109C895.804 137.127 894.384 128.667 894.384 118.727C894.384 110.089 895.035 103.522 896.336 99.0259C898.466 90.8612 902.726 84.4124 909.116 79.6793C915.505 74.9462 923.256 72.5796 932.367 72.5796C944.318 72.5796 953.252 75.597 959.168 81.6317C965.085 87.5481 968.694 96.3043 969.995 107.9ZM932.367 87.3114C927.279 87.3114 923.078 88.613 919.765 91.2162C916.452 93.7011 914.204 97.0734 913.021 101.333C912.192 103.936 911.66 107.25 911.423 111.273C911.423 111.746 911.66 111.983 912.133 111.983H952.779C953.252 111.983 953.489 111.746 953.489 111.273C953.252 107.368 952.897 104.469 952.424 102.576C951.24 97.9609 948.874 94.2927 945.324 91.5712C941.893 88.7313 937.574 87.3114 932.367 87.3114Z" fill="#F4F4F4"/>
<path d="M134.299 86.5255C135.291 83.517 133.51 80.1029 130.277 78.811C128.542 78.1186 127.99 78.1393 126.004 78.9703C124.01 79.8043 122.248 82.3755 122.246 84.4549C122.236 91.5647 132.081 93.2555 134.299 86.5255Z" fill="#F4F4F4"/>
<path fill-rule="evenodd" clip-rule="evenodd" d="M0 101.976C0 158.297 45.5944 203.953 101.838 203.953C158.082 203.953 203.676 158.297 203.676 101.976C203.676 45.6565 158.082 0 101.838 0C45.5944 0 0 45.6565 0 101.976ZM162.41 174.352C156.714 178.279 149.716 181.752 148.757 177.112C147.439 170.744 144.969 157.754 146.78 148.114C148.723 141.6 151.627 134.767 154.769 129.827C159.64 122.173 167.485 114.254 175.954 108.446C183.332 103.386 185.473 100.469 185.494 95.4491C185.516 90.1193 183.79 87.9234 174.81 81.8578C158.249 70.6706 134.598 58.4697 120.165 53.6689L117.995 52.9472H117.897C117.547 50.4143 115.955 47.3443 114.181 44.3966C109.498 36.6166 105.08 30.6168 98.4887 32.2601C91.8974 33.9033 91.0256 40.9376 90.3105 50.3473C90.2097 51.6758 90.1758 52.7495 90.2111 53.6311C88.354 54.4806 86.5189 55.4838 84.7317 56.5861C83.3444 54.6179 81.7126 52.7157 79.8186 50.8454C75.8879 46.9647 71.6817 44.2286 68.0991 43.2222C59.577 40.8269 54.1416 46.5519 56.6692 55.2595C57.9945 59.8243 62.2133 65.4677 67.8238 70.4721C65.9723 72.3516 64.5737 73.8933 63.7687 74.7981L61.3675 77.0235C43.8144 93.2916 27.9485 120.827 19.785 148.546C11.9899 134.804 7.53845 118.91 7.53845 101.976C7.53845 49.8255 49.7577 7.54872 101.838 7.54872C153.918 7.54872 196.137 49.8255 196.137 101.976C196.137 131.036 183.029 157.03 162.41 174.352ZM150.109 76.7153C133.011 67.3229 117.724 60.7484 106.017 57.646C105.603 57.5449 105.172 57.4341 104.723 57.3133C103.805 57.0851 102.91 56.8795 102.04 56.6967C97.9534 55.9929 95.8488 56.8633 94.2111 57.7494C92.1949 58.9051 90.0543 60.3963 87.8871 62.0696C89.2354 65.0324 90.1345 68.1855 90.6338 71.6233C91.2369 75.7729 91.111 82.5619 90.4107 83.6975C89.9446 84.4519 80.5447 79.6935 74.4792 75.6321C74.1206 75.3924 73.7649 75.1483 73.4122 74.9006C72.994 75.3002 72.5873 75.6903 72.1931 76.0686L72.1902 76.0708C70.1801 77.9983 68.4963 79.6124 67.3105 80.6418C66.4099 81.5952 65.2985 82.7537 64.0996 83.9844C61.1147 87.0496 57.2429 91.3648 55.4947 93.5747C41.9133 110.74 30.9195 133.193 24.8092 155.832C41.6957 162.507 70.4563 165.437 96.5462 144.275C97.086 143.837 97.6184 143.405 98.1441 142.978L98.2332 142.905C117.445 127.319 127.651 119.037 144.934 111.088C145.92 110.608 146.927 110.138 147.957 109.672C151.073 108.267 154.131 107.019 158.152 105.531C159.282 105.113 160.442 104.695 161.636 104.274C163.315 103.655 164.923 103.182 166.737 102.542C166.853 102.535 167.1 102.375 167.209 102.372C167.448 102.292 167.69 102.212 167.932 102.132C172.765 100.538 177.227 98.7703 177.848 98.2047C179.299 96.8819 179.299 94.7973 177.848 93.4943C176.067 91.8957 159.492 81.8695 150.109 76.7153Z" fill="#F4F4F4"/>
</svg>
